<svg width="32" height="32" viewBox="0 0 32 32" fill="none"
  xmlns="http://www.w3.org/2000/svg">
  <path fill-rule="evenodd" clip-rule="evenodd" d="M8.8 6H14.97C16.7735 6 18.5031 6.71643 19.7783 7.99167C21.0536 9.26692 21.77 10.9965 21.77 12.8V13.21C21.7674 15.0117 21.0498 16.7388 19.7748 18.0119C18.4998 19.2849 16.7717 20 14.97 20H14V18H14.97C16.2378 17.9974 17.4532 17.4932 18.3506 16.5977C19.248 15.7021 19.7547 14.4878 19.76 13.22V12.8C19.76 11.5304 19.257 10.3125 18.3612 9.41294C17.4653 8.51334 16.2496 8.00529 14.98 8H8.8C7.52696 8 6.30606 8.50571 5.40589 9.40589C4.96017 9.85161 4.6066 10.3808 4.36538 10.9631C4.12416 11.5455 4 12.1697 4 12.8V13.21C4.003 14.3411 4.40632 15.4345 5.13848 16.2967C5.87064 17.1588 6.88436 17.7339 8 17.92V19.92C6.35562 19.7252 4.8388 18.9372 3.73413 17.7036C2.62946 16.4701 2.01286 14.8758 2 13.22V12.8C2.00265 10.9973 2.71992 9.26927 3.9946 7.9946C5.26927 6.71992 6.99734 6.00265 8.8 6ZM24.0002 14.08V12.08C25.648 12.2752 27.1676 13.0661 28.2727 14.3039C29.3778 15.5416 29.9922 17.1407 30.0002 18.8V19.21C29.995 21.0092 29.2779 22.7332 28.0057 24.0054C26.7334 25.2777 25.0094 25.9947 23.2102 26H17.0302C15.232 25.9974 13.5079 25.2825 12.2354 24.0119C10.9629 22.7412 10.2455 21.0183 10.2402 19.22V18.8C10.2402 16.9983 10.9553 15.2702 12.2284 13.9952C13.5015 12.7202 15.2285 12.0026 17.0302 12H18.0002V14H17.0302C15.7589 14.0026 14.5406 14.5095 13.6426 15.4094C12.7446 16.3093 12.2402 17.5287 12.2402 18.8V19.21C12.2429 20.4796 12.7484 21.6964 13.6461 22.5941C14.5438 23.4919 15.7607 23.9974 17.0302 24H23.2102C24.4781 23.9974 25.6934 23.4932 26.5908 22.5977C27.4883 21.7021 27.995 20.4878 28.0002 19.22V18.8C27.9996 17.6672 27.5973 16.5714 26.865 15.7072C26.1326 14.843 25.1176 14.2664 24.0002 14.08Z" fill="#424242"/>
</svg>
